<?xml version="1.0" encoding="UTF-8"?>
<svg version="1.1" xmlns="http://www.w3.org/2000/svg" width="91" height="86">
<path d="M0 0 C6.74946059 4.6300038 10.46922063 10.0755596 12.27734375 18.05859375 C13.37568463 25.7576434 12.63075978 32.76022254 8.02734375 39.18359375 C3.27802701 44.83205298 -2.62158861 49.90847512 -10.16015625 50.74609375 C-13.50178279 50.87702631 -16.81805593 50.84625133 -20.16015625 50.74609375 C-21.31515625 50.72546875 -22.47015625 50.70484375 -23.66015625 50.68359375 C-31.85135821 48.4895218 -37.91429643 42.91098219 -42.16015625 35.74609375 C-44.89457657 30.41397413 -45.63272571 24.99079868 -44.41015625 19.18359375 C-43.99765625 18.04921875 -43.58515625 16.91484375 -43.16015625 15.74609375 C-42.76828125 14.61171875 -42.37640625 13.47734375 -41.97265625 12.30859375 C-38.31127644 5.1120886 -33.44471435 0.18220606 -26.16015625 -3.25390625 C-17.31804096 -5.98725724 -7.90604961 -4.58922591 0 0 Z M-25.16015625 4.74609375 C-23.63070622 7.97493271 -22.48466363 9.54696422 -19.41015625 11.43359375 C-16.25323864 12.05950069 -16.25323864 12.05950069 -14.21484375 10.59375 C-12.36759361 9.06434654 -10.69955798 7.58608872 -9.16015625 5.74609375 C-9.16015625 5.08609375 -9.16015625 4.42609375 -9.16015625 3.74609375 C-11.60987249 2.52123563 -13.30250086 2.57886567 -16.03515625 2.55859375 C-16.89882813 2.54441406 -17.7625 2.53023437 -18.65234375 2.515625 C-21.28428505 2.75750123 -22.89996169 3.41625834 -25.16015625 4.74609375 Z M-32.16015625 8.74609375 C-35.14930282 12.36103759 -35.14930282 12.36103759 -36.16015625 16.74609375 C-35.60585938 17.02324219 -35.0515625 17.30039062 -34.48046875 17.5859375 C-30.3203125 19.66601562 -30.3203125 19.66601562 -26.16015625 21.74609375 C-25.72514461 15.77014062 -25.72514461 15.77014062 -27.47265625 10.18359375 C-29.17131645 8.42186052 -29.17131645 8.42186052 -32.16015625 8.74609375 Z M-4.16015625 8.74609375 C-5.93425433 10.66632078 -5.93425433 10.66632078 -7.16015625 12.74609375 C-5.87256608 15.61841027 -4.78138456 17.93835009 -2.16015625 19.74609375 C1.46520351 19.99645145 1.46520351 19.99645145 4.83984375 19.74609375 C3.41043509 13.68006139 3.41043509 13.68006139 -0.16015625 8.74609375 C-1.48015625 8.74609375 -2.80015625 8.74609375 -4.16015625 8.74609375 Z M-17.91015625 21.12109375 C-19.38742188 21.84425781 -19.38742188 21.84425781 -20.89453125 22.58203125 C-21.6421875 22.96617188 -22.38984375 23.3503125 -23.16015625 23.74609375 C-22.23203125 24.21015625 -22.23203125 24.21015625 -21.28515625 24.68359375 C-19.91015625 25.37109375 -18.53515625 26.05859375 -17.16015625 26.74609375 C-16.42939977 29.06015595 -15.75877367 31.39438244 -15.16015625 33.74609375 C-14.51046875 32.84890625 -14.51046875 32.84890625 -13.84765625 31.93359375 C-11.83459978 29.3240761 -10.1249598 27.22849553 -7.16015625 25.74609375 C-7.34844397 23.30129296 -7.34844397 23.30129296 -8.16015625 20.74609375 C-11.84516285 17.8799775 -13.9905201 19.16127567 -17.91015625 21.12109375 Z M-37.16015625 22.74609375 C-37.47750643 28.0352635 -37.1194735 31.30711788 -34.16015625 35.74609375 C-30.69584474 39.5303079 -27.40212468 42.93778523 -22.16015625 43.68359375 C-21.17015625 43.70421875 -20.18015625 43.72484375 -19.16015625 43.74609375 C-20.66813731 40.25392708 -21.72460312 38.07794375 -24.78515625 35.74609375 C-27.16015625 33.74609375 -27.16015625 33.74609375 -27.53515625 30.80859375 C-28.36544154 26.74019585 -30.1287254 25.8462921 -33.46875 23.62890625 C-35.13767115 22.59185844 -35.13767115 22.59185844 -37.16015625 22.74609375 Z M-7.16015625 32.74609375 C-9.6639842 35.63682668 -12.16015625 38.80530657 -12.16015625 42.74609375 C-6.61900797 42.51992443 -3.73229586 41.22418463 0.328125 37.4375 C2.84413419 34.62243029 4.83984375 31.59571124 4.83984375 27.74609375 C0.48880105 27.74609375 -3.6124927 30.41254426 -7.16015625 32.74609375 Z " fill="#268BE6" transform="translate(69.16015625,23.25390625)"/>
<path d="M0 0 C0.99 0 1.98 0 3 0 C2.835 1.11375 2.67 2.2275 2.5 3.375 C1.9544542 6.72032033 1.9544542 6.72032033 2 9 C4.97 9.33 7.94 9.66 11 10 C10.67 11.32 10.34 12.64 10 14 C10.61488281 14.12117188 11.22976562 14.24234375 11.86328125 14.3671875 C13.07564453 14.61855469 13.07564453 14.61855469 14.3125 14.875 C15.11300781 15.03742187 15.91351563 15.19984375 16.73828125 15.3671875 C19 16 19 16 22 18 C22.51171875 20.1640625 22.51171875 20.1640625 22.6875 22.625 C22.75324219 23.44226563 22.81898437 24.25953125 22.88671875 25.1015625 C22.92410156 25.72804688 22.96148437 26.35453125 23 27 C23.99 26.67 24.98 26.34 26 26 C26.88935377 29.303314 27.46274105 32.62294375 28 36 C30.475 35.505 30.475 35.505 33 35 C33 35.99 33 36.98 33 38 C31.12309942 39.87690058 28.07036973 39.21760556 25.5625 39.25 C19.21616597 39.22401706 13.90193792 38.28462113 8 36 C8 35.34 8 34.68 8 34 C7.113125 33.979375 6.22625 33.95875 5.3125 33.9375 C0.67267717 32.6243426 -0.69977783 30.06895362 -3 26 C-5.7557709 20.62624674 -6.72280438 14.81695293 -5.0625 9 C-4.711875 8.01 -4.36125 7.02 -4 6 C-3.34 6 -2.68 6 -2 6 C-1.34 4.02 -0.68 2.04 0 0 Z M2 13 C1.68264982 18.28916975 2.04068275 21.56102413 5 26 C8.46431151 29.78421415 11.75803157 33.19169148 17 33.9375 C17.99 33.958125 18.98 33.97875 20 34 C18.49201894 30.50783333 17.43555313 28.33185 14.375 26 C12 24 12 24 11.625 21.0625 C10.79471471 16.9941021 9.03143085 16.10019835 5.69140625 13.8828125 C4.0224851 12.84576469 4.0224851 12.84576469 2 13 Z " fill="#2A8CE4" transform="translate(30,33)"/>
<path d="M0 0 C-0.71027344 0.32613281 -1.42054687 0.65226562 -2.15234375 0.98828125 C-3.07144531 1.42527344 -3.99054687 1.86226562 -4.9375 2.3125 C-5.85402344 2.74175781 -6.77054688 3.17101562 -7.71484375 3.61328125 C-10.30969412 4.85078661 -10.30969412 4.85078661 -11 8 C-9.35 8.33 -7.7 8.66 -6 9 C-6 8.34 -6 7.68 -6 7 C-4.68 6.67 -3.36 6.34 -2 6 C-2 5.34 -2 4.68 -2 4 C0.27057377 3.94601013 2.54151288 3.90721258 4.8125 3.875 C6.07707031 3.85179687 7.34164062 3.82859375 8.64453125 3.8046875 C12 4 12 4 15 6 C13.79618552 8.49361571 12.54571278 10.68143083 11 13 C10.34 13 9.68 13 9 13 C9 13.66 9 14.32 9 15 C5.7 14.67 2.4 14.34 -1 14 C-1.33 17.3 -1.66 20.6 -2 24 C0.97 23.34 3.94 22.68 7 22 C4 25 4 25 2 26 C2.33 26.66 2.66 27.32 3 28 C-0.46941546 27.54177532 -3.67395049 27.10868317 -7 26 C-6.46457928 24.39373784 -5.92695079 22.7881573 -5.375 21.1875 C-4.87847219 18.29108776 -5.41540659 15.85801222 -6 13 C-7.32 12.67 -8.64 12.34 -10 12 C-11.32 14.31 -12.64 16.62 -14 19 C-13.21625 19.103125 -12.4325 19.20625 -11.625 19.3125 C-9 20 -9 20 -7 23 C-9.97 22.67 -12.94 22.34 -16 22 C-16.33 21.01 -16.66 20.02 -17 19 C-16.34 19 -15.68 19 -15 19 C-15.33 17.35 -15.66 15.7 -16 14 C-15.34 14 -14.68 14 -14 14 C-14 13.34 -14 12.68 -14 12 C-14.99 12.33 -15.98 12.66 -17 13 C-18.21869929 15.50447516 -18.21869929 15.50447516 -19 18 C-19.66015625 16.24609375 -19.66015625 16.24609375 -20 14 C-16.44550057 7.04313925 -8.33213218 -2.38554822 0 0 Z M-3 7 C-1.47054997 10.22883896 -0.32450738 11.80087047 2.75 13.6875 C5.90691761 14.31340694 5.90691761 14.31340694 7.9453125 12.84765625 C9.79256264 11.31825279 11.46059827 9.83999497 13 8 C13 7.34 13 6.68 13 6 C10.55028376 4.77514188 8.85765539 4.83277192 6.125 4.8125 C5.26132812 4.79832031 4.39765625 4.78414062 3.5078125 4.76953125 C0.8758712 5.01140748 -0.73980544 5.67016459 -3 7 Z " fill="#2D81D1" transform="translate(47,21)"/>
<path d="M0 0 C0.6328125 1.84765625 0.6328125 1.84765625 1.125 4.0625 C1.29257812 4.79597656 1.46015625 5.52945313 1.6328125 6.28515625 C1.75398438 6.85105469 1.87515625 7.41695312 2 8 C2.99 7.67 3.98 7.34 5 7 C5.88935377 10.303314 6.46274105 13.62294375 7 17 C8.65 16.67 10.3 16.34 12 16 C12 16.99 12 17.98 12 19 C10.12309942 20.87690058 7.07036973 20.21760556 4.5625 20.25 C-1.78383403 20.22401706 -7.09806208 19.28462113 -13 17 C-13 16.34 -13 15.68 -13 15 C-14.65 14.67 -16.3 14.34 -18 14 C-18.66 12.02 -19.32 10.04 -20 8 C-17.75 7.6875 -17.75 7.6875 -15 8 C-11 12.10810811 -11 12.10810811 -11 15 C-7.37 15.66 -3.74 16.32 0 17 C0.33 15.02 0.66 13.04 1 11 C0.34 11 -0.32 11 -1 11 C-1.33 9.35 -1.66 7.7 -2 6 C-3.2065625 5.814375 -3.2065625 5.814375 -4.4375 5.625 C-5.283125 5.41875 -6.12875 5.2125 -7 5 C-7.33 4.34 -7.66 3.68 -8 3 C-6 0 -6 0 -4 -0.75 C-2 -1 -2 -1 0 0 Z " fill="#208EF3" transform="translate(51,52)"/>
<path d="M0 0 C1.32 0.66 2.64 1.32 4 2 C4 2.99 4 3.98 4 5 C4.66 5 5.32 5 6 5 C6 9.95 6 14.9 6 20 C5.34 20 4.68 20 4 20 C3.505 17.525 3.505 17.525 3 15 C2.34 15 1.68 15 1 15 C1 15.99 1 16.98 1 18 C-0.32 18 -1.64 18 -3 18 C-3 18.66 -3 19.32 -3 20 C-6.68734758 22.45823172 -9.69699971 23.01242616 -14 24 C-13.67 22.02 -13.34 20.04 -13 18 C-12.34 18 -11.68 18 -11 18 C-11 15.36 -11 12.72 -11 10 C-10.43796875 10.31710938 -9.8759375 10.63421875 -9.296875 10.9609375 C-6.84803683 12.06874525 -4.91612145 12.38975399 -2.25 12.625 C-1.45078125 12.69976562 -0.6515625 12.77453125 0.171875 12.8515625 C0.77515625 12.90054688 1.3784375 12.94953125 2 13 C1.855625 12.39671875 1.71125 11.7934375 1.5625 11.171875 C1.376875 10.37265625 1.19125 9.5734375 1 8.75 C0.814375 7.96109375 0.62875 7.1721875 0.4375 6.359375 C0 4 0 4 0 0 Z " fill="#1B8CF4" transform="translate(73,31)"/>
<path d="M0 0 C9.94450096 -0.56054598 17.40247664 1.08212202 25.26953125 7.37890625 C27.7662335 9.7178034 29.36141239 11.99592271 31 15 C31 15.66 31 16.32 31 17 C30.34 17 29.68 17 29 17 C28.67 16.01 28.34 15.02 28 14 C27.34 13.67 26.68 13.34 26 13 C26.2475 14.0209375 26.2475 14.0209375 26.5 15.0625 C27.07089059 18.4164822 27.06659023 21.60389805 27 25 C25.5629191 25.05422947 24.12524538 25.09289723 22.6875 25.125 C21.48673828 25.15980469 21.48673828 25.15980469 20.26171875 25.1953125 C18 25 18 25 15 23 C14.34 23.99 13.68 24.98 13 26 C12.401875 25.690625 11.80375 25.38125 11.1875 25.0625 C8.91043228 23.89790296 8.91043228 23.89790296 6 23 C7.65 22.34 9.3 21.68 11 21 C11 19.68 11 18.36 11 17 C13.5 14.25 13.5 14.25 16 12 C16.66 12.33 17.32 12.66 18 13 C17.01 14.32 16.02 15.64 15 17 C16.15173355 19.46800047 17.04783565 21.04783565 19 23 C21.32275177 23.40047444 23.65739357 23.7397104 26 24 C25.21331482 22.37258256 24.4204759 20.74813869 23.625 19.125 C23.18414062 18.22007813 22.74328125 17.31515625 22.2890625 16.3828125 C21.09497301 13.90465528 21.09497301 13.90465528 19 12 C20.32 11.67 21.64 11.34 23 11 C21.20893552 7.10180084 19.36776892 5.10738682 15.31640625 3.55859375 C10.30918103 2.35111785 5.12981001 2.223706 0 2 C0 1.34 0 0.68 0 0 Z " fill="#307ABD" transform="translate(48,19)"/>
<path d="M0 0 C0.99 0 1.98 0 3 0 C2.835 1.11375 2.67 2.2275 2.5 3.375 C1.9544542 6.72032033 1.9544542 6.72032033 2 9 C4.97 9.33 7.94 9.66 11 10 C11 10.66 11 11.32 11 12 C9.68 12 8.36 12 7 12 C6.67 12.66 6.34 13.32 6 14 C6 13.34 6 12.68 6 12 C4.02 12 2.04 12 0 12 C-0.70194993 13.80252869 -0.70194993 13.80252869 -1 16 C-0.3507041 17.34187818 0.31731862 18.67479497 1 20 C1.125 22.75 1.125 22.75 1 25 C0.34 25 -0.32 25 -1 25 C-1 24.01 -1 23.02 -1 22 C-1.66 22 -2.32 22 -3 22 C-3.69040574 20.34302621 -4.3530635 18.6744239 -5 17 C-5.2475 16.38125 -5.495 15.7625 -5.75 15.125 C-6.13673222 11.83777613 -5.01451876 9.10323385 -4 6 C-3.34 6 -2.68 6 -2 6 C-1.34 4.02 -0.68 2.04 0 0 Z " fill="#2190EE" transform="translate(30,33)"/>
<path d="M0 0 C1.53202706 0.25195908 3.05257128 0.57596777 4.5625 0.9375 C5.38878906 1.13214844 6.21507812 1.32679687 7.06640625 1.52734375 C8.02353516 1.76130859 8.02353516 1.76130859 9 2 C9 3.32 9 4.64 9 6 C9.99 6.33 10.98 6.66 12 7 C10.58774074 7.67595315 9.16997095 8.34040059 7.75 9 C6.56664062 9.556875 6.56664062 9.556875 5.359375 10.125 C3 11 3 11 -1 11 C-1.02688151 9.35425434 -1.04634123 7.70838587 -1.0625 6.0625 C-1.07410156 5.14597656 -1.08570313 4.22945312 -1.09765625 3.28515625 C-1 1 -1 1 0 0 Z " fill="#238CED" transform="translate(46,34)"/>
<path d="M0 0 C3.6716731 5.50750965 3.2018993 10.72926342 2.0625 17 C1.72005921 18.66911537 1.36994749 20.336765 1 22 C-0.65 22.33 -2.3 22.66 -4 23 C-4 20.36 -4 17.72 -4 15 C-5.65 15 -7.3 15 -9 15 C-9 14.34 -9 13.68 -9 13 C-7.68 13 -6.36 13 -5 13 C-5 12.01 -5 11.02 -5 10 C-4.34 10 -3.68 10 -3 10 C-2.67 11.65 -2.34 13.3 -2 15 C-1.34 15 -0.68 15 0 15 C0 10.05 0 5.1 0 0 Z " fill="#278AE0" transform="translate(79,36)"/>
<path d="M0 0 C2.475 0.495 2.475 0.495 5 1 C5 1.66 5 2.32 5 3 C14.42094368 5.43121127 24.45770994 6.2378729 34 4 C31.54748126 6.96883848 29.80515963 7.59519578 26 8 C15.6332049 8.40481543 8.31611334 7.63780475 0 1 C0 0.67 0 0.34 0 0 Z " fill="#3884C5" transform="translate(33,66)"/>
<path d="M0 0 C0.33 0 0.66 0 1 0 C1.12117188 0.67546875 1.24234375 1.3509375 1.3671875 2.046875 C1.53476562 2.93890625 1.70234375 3.8309375 1.875 4.75 C2.11863281 6.07257812 2.11863281 6.07257812 2.3671875 7.421875 C2.96796264 9.86947744 3.77997117 11.80599857 5 14 C3.68 14.33 2.36 14.66 1 15 C1.33 16.65 1.66 18.3 2 20 C-2.19936589 16.25461961 -4.2766211 13.26587999 -6 8 C-5.6875 5.5625 -5.6875 5.5625 -5 4 C-4.67 5.65 -4.34 7.3 -4 9 C-3.34 9 -2.68 9 -2 9 C-2 9.99 -2 10.98 -2 12 C-1.34 12 -0.68 12 0 12 C0 8.04 0 4.08 0 0 Z " fill="#3789D5" transform="translate(31,46)"/>
<path d="M0 0 C0.495 0.309375 0.99 0.61875 1.5 0.9375 C4.97986781 2.41644382 8.24028509 2.62402851 12 3 C12 3.33 12 3.66 12 4 C6.62694301 5.67357513 6.62694301 5.67357513 4 6 C2 4.625 2 4.625 1 3 C1.33 4.32 1.66 5.64 2 7 C2.66 7 3.32 7 4 7 C4 7.99 4 8.98 4 10 C4.66 10.33 5.32 10.66 6 11 C1.545 12.485 1.545 12.485 -3 14 C-2.67 12.02 -2.34 10.04 -2 8 C-1.34 8 -0.68 8 0 8 C0 5.36 0 2.72 0 0 Z " fill="#258BEB" transform="translate(62,41)"/>
<path d="M0 0 C2.27057377 -0.05398987 4.54151288 -0.09278742 6.8125 -0.125 C8.07707031 -0.14820312 9.34164062 -0.17140625 10.64453125 -0.1953125 C14 0 14 0 17 2 C15.79618552 4.49361571 14.54571278 6.68143083 13 9 C12.34 9 11.68 9 11 9 C11 9.66 11 10.32 11 11 C5.25 11.125 5.25 11.125 3 10 C3.33 9.34 3.66 8.68 4 8 C4.53625 8.268125 5.0725 8.53625 5.625 8.8125 C8.33290376 9.28482253 8.33290376 9.28482253 11.1875 6.6875 C13.97949242 4.32243312 13.97949242 4.32243312 15 2 C10.05 2 5.1 2 0 2 C0 1.34 0 0.68 0 0 Z " fill="#3583C7" transform="translate(45,25)"/>
<path d="M0 0 C0.99 0.66 1.98 1.32 3 2 C3 2.66 3 3.32 3 4 C3.804375 4.2475 4.60875 4.495 5.4375 4.75 C8 6 8 6 8.8125 8.125 C8.874375 8.74375 8.93625 9.3625 9 10 C8.34 10 7.68 10 7 10 C6.67 9.01 6.34 8.02 6 7 C5.34 6.67 4.68 6.34 4 6 C4 7.65 4 9.3 4 11 C0.63279613 9.60667426 -0.9859524 8.0210714 -3 5 C-1.68 4.67 -0.36 4.34 1 4 C0.67 2.68 0.34 1.36 0 0 Z " fill="#2B86DC" transform="translate(70,26)"/>
<path d="M0 0 C1.98 0.66 3.96 1.32 6 2 C6.061875 2.70125 6.12375 3.4025 6.1875 4.125 C7.00485842 7.01719132 7.67675398 7.96627865 9.625 10.125 C10.40875 11.07375 11.1925 12.0225 12 13 C11.67 13.99 11.34 14.98 11 16 C4 9 4 9 3.875 5.875 C3.91625 4.92625 3.9575 3.9775 4 3 C2.68 2.34 1.36 1.68 0 1 C0 0.67 0 0.34 0 0 Z " fill="#3287CD" transform="translate(37,48)"/>
<path d="M0 0 C-2.475 1.485 -2.475 1.485 -5 3 C-4.67 3.66 -4.34 4.32 -4 5 C-7.46941546 4.54177532 -10.67395049 4.10868317 -14 3 C-13.67 2.01 -13.34 1.02 -13 0 C-12.01 0.33 -11.02 0.66 -10 1 C-7.99082199 0.6529954 -7.99082199 0.6529954 -5.9375 0 C-2.21703617 -1.10851809 -2.21703617 -1.10851809 0 0 Z " fill="#2170B9" transform="translate(54,44)"/>
<path d="M0 0 C2.00720923 0.28674418 4.0085944 0.61866701 6 1 C6.33 1.99 6.66 2.98 7 4 C5.02 3.34 3.04 2.68 1 2 C1 4.31 1 6.62 1 9 C-0.5625 7.25 -0.5625 7.25 -2 5 C-1.75203633 2.83031791 -1.55766393 1.55766393 0 0 Z " fill="#2486E0" transform="translate(30,44)"/>
<path d="M0 0 C1.43739513 -0.02712066 2.87493863 -0.04645067 4.3125 -0.0625 C5.51326172 -0.07990234 5.51326172 -0.07990234 6.73828125 -0.09765625 C9 0 9 0 12 1 C12 1.66 12 2.32 12 3 C10.02 3.33 8.04 3.66 6 4 C5.67 3.34 5.34 2.68 5 2 C3.35 2.33 1.7 2.66 0 3 C0 2.01 0 1.02 0 0 Z " fill="#2389E6" transform="translate(57,67)"/>
<path d="M0 0 C2.475 0.495 2.475 0.495 5 1 C5 1.66 5 2.32 5 3 C5.94875 3.103125 6.8975 3.20625 7.875 3.3125 C11 4 11 4 13 7 C7.92990529 6.52467862 4.02506742 3.95637706 0 1 C0 0.67 0 0.34 0 0 Z " fill="#4294D9" transform="translate(33,66)"/>
<path d="M0 0 C0.33 0.66 0.66 1.32 1 2 C1.804375 2.144375 2.60875 2.28875 3.4375 2.4375 C6 3 6 3 8 6 C5.03 5.67 2.06 5.34 -1 5 C-1.33 4.01 -1.66 3.02 -2 2 C-1.34 2 -0.68 2 0 2 C0 1.34 0 0.68 0 0 Z " fill="#2D82D0" transform="translate(32,38)"/>
<path d="M0 0 C2.475 0.99 2.475 0.99 5 2 C5 2.99 5 3.98 5 5 C3.35 4.67 1.7 4.34 0 4 C-0.33 4.66 -0.66 5.32 -1 6 C-1.042721 4.33388095 -1.04063832 2.66617115 -1 1 C-0.67 0.67 -0.34 0.34 0 0 Z " fill="#329FF0" transform="translate(46,34)"/>
<path d="M0 0 C2.475 0.99 2.475 0.99 5 2 C5 3.98 5 5.96 5 8 C4.67 8 4.34 8 4 8 C3.67 6.35 3.34 4.7 3 3 C1.02 3.33 -0.96 3.66 -3 4 C-3 3.34 -3 2.68 -3 2 C-2.01 2 -1.02 2 0 2 C0 1.34 0 0.68 0 0 Z " fill="#2289E5" transform="translate(47,49)"/>
<path d="M0 0 C0.99 0.33 1.98 0.66 3 1 C2.67 2.65 2.34 4.3 2 6 C0.68 5.34 -0.64 4.68 -2 4 C-1.34 2.68 -0.68 1.36 0 0 Z " fill="#45A7F4" transform="translate(45,52)"/>
</svg>
